Coordinates
version=1
nRows=6
nColumns=36
inDegrees=yes

Units are S.I. units (second, meters, Newtons, ...)
If the header above contains a line with 'inDegrees', this indicates whether rotational values are in degrees (yes) or radians (no).

endheader
time	pelvis_tilt	pelvis_list	pelvis_rotation	pelvis_tx	pelvis_ty	pelvis_tz	hip_flexion_r	hip_adduction_r	hip_rotation_r	knee_angle_r	knee_angle_r_beta	ankle_angle_r	subtalar_angle_r	mtp_angle_r	hip_flexion_l	hip_adduction_l	hip_rotation_l	knee_angle_l	knee_angle_l_beta	ankle_angle_l	subtalar_angle_l	mtp_angle_l	lumbar_extension	lumbar_bending	lumbar_rotation	arm_flex_r	arm_add_r	arm_rot_r	elbow_flex_r	pro_sup_r	arm_flex_l	arm_add_l	arm_rot_l	elbow_flex_l	pro_sup_l
      0.00000000	      0.97225318	      0.81027642	      8.18257947	     -0.14610759	      0.93434727	      0.15939115	      1.22012366	      2.28125852	     -1.15712785	      2.80981694	      0.04904056	      6.65268924	      0.66030733	     -6.55832440	      5.20176641	     -4.20025400	     -2.79721815	      4.00663478	      0.06992897	      4.04480777	     -1.39128784	     -6.55832440	     -3.71465896	      2.69264053	      2.41594572	    -19.79362606	    -35.07026181	     -0.62024263	    111.30850758	     88.96664894	    -15.78932951	    -37.60352747	      3.07120658	    119.24157734	     85.67879665
      0.01666670	     -0.43583683	      1.20346512	      7.80858068	     -0.14403544	      0.93490007	      0.16154770	      3.13615790	      1.83323498	     -0.29857436	      3.03980506	      0.05305461	      8.28909772	     -0.94439816	     -6.58703304	      6.60019376	     -3.23981944	     -2.11484475	      4.17626616	      0.07288959	      2.99548037	     -1.20455555	     -6.58703304	     -1.62322643	      2.24894184	      2.99105460	    -19.60494690	    -36.15949458	     -0.31200573	    113.90802494	     89.15348652	    -15.78957771	    -37.71918694	      2.94691093	    121.23596858	     85.87493678
      0.03333330	     -1.59505952	      1.94086654	      7.43822328	     -0.14545094	      0.93034078	      0.16463714	      4.20873291	      1.14662548	     -0.53307590	      2.69076488	      0.04696271	      8.12689483	     -1.74759702	     -7.08090204	      7.98756493	     -2.52385185	     -2.38711239	      4.41016372	      0.07697188	      2.63684317	     -1.18962486	     -7.08090204	      0.27799591	      0.92210944	      2.70999815	    -12.36486938	    -36.63426357	      4.50544180	    114.23933411	     89.74326894	    -12.72257794	    -37.78217631	      3.86690997	    120.23697565	     84.63022614
      0.05000000	     -1.91676691	      2.37587008	      7.32003258	     -0.14885649	      0.92830670	      0.16729290	      4.69217209	      0.76959137	     -0.32591710	      2.82055962	      0.04922805	      8.39240347	     -2.19085735	     -7.21460296	      8.48523897	     -2.18079816	     -1.88080500	      4.72769527	      0.08251385	      2.58877077	     -1.84618843	     -7.21460296	      1.11530900	      0.44197021	      2.65488853	     -3.64793453	    -35.32634591	     10.09848876	    115.15928143	     86.23548790	     -7.03224010	    -37.25365379	      6.90808764	    117.24535261	     80.92482745
      0.06666670	     -2.21851056	      2.42213136	      7.20093490	     -0.15240075	      0.92597328	      0.16829958	      5.22642997	      0.79006095	     -0.07291694	      3.13231590	      0.05466923	      8.59793474	     -2.46180963	     -7.34625685	      9.34211605	     -2.19846990	     -1.48191735	      5.76049358	      0.10053958	      2.87246054	     -2.40434507	     -7.34625685	      1.76067125	      0.58125511	      1.35298027	      7.58019794	    -33.63546338	     17.25985305	    116.17123439	     88.20282149	     -0.77991537	    -36.03846630	      8.45759344	    114.50700923	     81.85709743
      0.08333330	     -2.12405089	      2.60495008	      7.18690125	     -0.15385810	      0.92856952	      0.17091273	      5.30999329	      0.72975001	      0.03727962	      3.32052773	      0.05795414	      8.88398383	     -2.31461236	     -7.43465643	     10.03223135	     -2.08410746	     -0.85993868	      7.23227347	      0.12622698	      2.89870131	     -3.52103731	     -7.43465643	      1.86260423	      0.09767741	      1.26708417	     17.30020291	    -31.32391998	     22.71072388	    114.60647589	     87.35272054	     12.99455646	    -35.61466575	     16.57665556	    109.82831201	     81.36570925
